PathFileType	4	(X/Y/Z)	/Users/itak/Documents/Research/Walk-IL/dataset/trc/00187_00008.trc
DataRate	CameraRate	NumFrames	NumMarkers	Units	OrigDataRate	OrigDataStartFrame	OrigNumFrames
100.000000	100.000000	4	53	mm	100.000000	191	766
Frame#	Time	RPSI			LPSI			L3			STRN			T10			C7			CLAV			RBAK			LBAK			LSHO			LUPA			LAEL			LAOL			LWTS			LWPS			LFRA			LIFD			LHPS			LHTS			RSHO			RUPA			RAEL			RAOL			RWTS			RWPS			RFRA			RIFD			RHTS			RHPS			RBHD			LFHD			RFHD			LBHD			LHIP			RHIP			RASI			LASI			LKNE			LTHI			LANK			LTIP			LTOE			LMT1			LMT5			LHEE			RKNE			RTHI			RANK			RTIP			RTOE			RMT1			RMT5			RHEE			
		X1	Y1	Z1	X2	Y2	Z2	X3	Y3	Z3	X4	Y4	Z4	X5	Y5	Z5	X6	Y6	Z6	X7	Y7	Z7	X8	Y8	Z8	X9	Y9	Z9	X10	Y10	Z10	X11	Y11	Z11	X12	Y12	Z12	X13	Y13	Z13	X14	Y14	Z14	X15	Y15	Z15	X16	Y16	Z16	X17	Y17	Z17	X18	Y18	Z18	X19	Y19	Z19	X20	Y20	Z20	X21	Y21	Z21	X22	Y22	Z22	X23	Y23	Z23	X24	Y24	Z24	X25	Y25	Z25	X26	Y26	Z26	X27	Y27	Z27	X28	Y28	Z28	X29	Y29	Z29	X30	Y30	Z30	X31	Y31	Z31	X32	Y32	Z32	X33	Y33	Z33	X34	Y34	Z34	X35	Y35	Z35	X36	Y36	Z36	X37	Y37	Z37	X38	Y38	Z38	X39	Y39	Z39	X40	Y40	Z40	X41	Y41	Z41	X42	Y42	Z42	X43	Y43	Z43	X44	Y44	Z44	X45	Y45	Z45	X46	Y46	Z46	X47	Y47	Z47	X48	Y48	Z48	X49	Y49	Z49	X50	Y50	Z50	X51	Y51	Z51	X52	Y52	Z52	X53	Y53	Z53	

192	1.91	1062.943969726562	1059.312377929688	505.7759399414062	942.2281494140625	1053.779663085938	487.131103515625	1005.512756347656	1095.3935546875	495.1817016601562	1030.237915039062	1297.160888671875	226.08154296875	990.5885620117188	1254.671875	525.2938842773438	978.4228515625	1520.060180664062	446.8663940429688	1012.193298339844	1411.512329101562	249.9160308837891	1082.644409179688	1353.412475585938	535.2069091796875	880.0302734375	1493.989379882812	442.0361938476562	811.8283081054688	1476.128540039062	355.9286804199219	737.867431640625	1348.014892578125	397.1083679199219	719.313232421875	1132.76513671875	411.5781555175781	793.4954223632812	1120.378540039062	460.4210510253906	756.6168823242188	912.6782836914062	281.2135925292969	720.7150268554688	881.4177856445312	360.6131896972656	708.2230834960938	1021.052856445312	391.0550537109375	785.0732421875	731.9841918945312	244.4704895019531	726.7452392578125	814.64404296875	330.9907531738281	739.2374877929688	834.6377563476562	262.2604064941406	1162.681518554688	1507.644653320312	410.0512084960938	1230.024780273438	1450.953491210938	446.2607421875	1320.137817382812	1179.936157226562	504.2247314453125	1227.578491210938	1155.6044921875	482.9292297363281	1381.65234375	969.2424926757812	351.3645324707031	1404.125244140625	947.7097778320312	435.5798034667969	1356.784057617188	1111.61328125	483.1830444335938	1390.686767578125	784.9971313476562	313.4334106445312	1413.6328125	882.0941772460938	321.2062072753906	1423.550903320312	869.8531494140625	400.5779724121094	1054.53125	1681.0810546875	387.95068359375	922.2984008789062	1717.140258789062	218.6746978759766	1051.7255859375	1729.807495117188	219.1569366455078	918.2744750976562	1676.400268554688	394.0101623535156	834.4307250976562	986.55078125	369.0158386230469	1209.369873046875	1019.136169433594	371.1357116699219	1168.412963867188	1043.9970703125	282.1564331054688	910.5363159179688	1028.407470703125	255.5939636230469	900.6697387695312	508.5256958007812	164.7115783691406	869.9735717773438	647.3143920898438	218.8251800537109	958.1982421875	137.6293182373047	463.2228698730469	923.3950805664062	314.3696594238281	305.2364196777344	976.5213012695312	50.39901733398438	267.0983581542969	1023.433349609375	66.06214141845703	312.1263732910156	916.74560546875	87.40443420410156	369.3543395996094	1027.397827148438	161.7438812255859	506.6642150878906	1199.906982421875	515.6536865234375	346.1824951171875	1230.721923828125	788.1268310546875	314.2881469726562	1186.473999023438	30.93418312072754	468.8186950683594	1187.80029296875	391.3602905273438	340.0936279296875	1195.650756835938	38.66435241699219	244.9685668945312	1142.138793945312	41.94536209106445	288.0740661621094	1245.619873046875	24.31641387939453	368.05419921875	1109.185546875	36.24197006225586	505.0051574707031	
193	1.92	1066.264892578125	1058.933471679688	497.4349365234375	945.2284545898438	1053.230834960938	479.6337585449219	1008.878295898438	1094.991088867188	487.4717407226562	1029.8193359375	1296.361206054688	217.9971313476562	994.6038208007812	1254.427368164062	517.4779663085938	980.9290161132812	1519.714965820312	438.8589782714844	1011.807861328125	1410.59814453125	241.934326171875	1086.745849609375	1353.340209960938	525.84814453125	882.59326171875	1493.357421875	435.6000366210938	813.0985717773438	1475.086303710938	350.56884765625	740.4014282226562	1346.673095703125	393.0982666015625	723.5831298828125	1131.199340820312	407.9672241210938	798.617919921875	1118.851684570312	455.4066467285156	760.9774780273438	913.4632568359375	273.9332275390625	726.3478393554688	880.4921264648438	353.2527770996094	713.3201293945312	1019.575073242188	386.3273315429688	790.5711669921875	733.7750244140625	233.31787109375	732.6332397460938	814.2540893554688	322.2867736816406	744.0465087890625	835.6605224609375	253.8281707763672	1164.641357421875	1507.56494140625	399.2687683105469	1232.754150390625	1451.04638671875	434.3945922851562	1324.95849609375	1180.286254882812	490.2357482910156	1232.284423828125	1155.848388671875	471.1724853515625	1384.347045898438	969.6109619140625	336.5204162597656	1408.612426757812	948.4496459960938	420.3558959960938	1361.451416015625	1112.169921875	468.5681762695312	1393.383666992188	785.1780395507812	299.15966796875	1416.042358398438	882.454833984375	306.0355224609375	1427.694702148438	870.5912475585938	385.2153625488281	1055.799072265625	1680.662109375	378.1269836425781	920.830322265625	1716.096313476562	210.9195251464844	1050.31689453125	1729.08154296875	209.2834014892578	919.7020874023438	1675.693481445312	386.3992614746094	836.2003173828125	986.7395629882812	362.8429870605469	1211.16162109375	1018.558044433594	361.2172546386719	1169.334838867188	1043.447631835938	272.6544494628906	911.39306640625	1028.454833984375	248.8538208007812	899.6873168945312	510.8004760742188	152.6602783203125	869.195556640625	649.016845703125	209.1188201904297	964.9230346679688	125.9123229980469	432.2595520019531	925.4373168945312	310.464111328125	284.3081970214844	977.5338134765625	49.91090393066406	231.1993408203125	1025.712768554688	62.72637939453125	275.6958312988281	920.8884887695312	80.95580291748047	336.9034118652344	1035.189331054688	147.7387237548828	475.0652465820312	1200.442504882812	515.0977783203125	343.3468322753906	1231.349487304688	787.0274047851562	306.6084899902344	1186.33642578125	31.23066139221191	468.7461547851562	1187.96923828125	390.766357421875	338.324462890625	1195.799560546875	38.70301055908203	244.8245086669922	1142.236572265625	42.09280014038086	287.803466796875	1245.618530273438	24.3125057220459	368.04638671875	1108.87646484375	36.19765472412109	504.7635803222656	
194	1.93	1069.505737304688	1058.41162109375	489.0115356445312	948.1605224609375	1052.511108398438	472.0383911132812	1012.157958984375	1094.430053710938	479.6790466308594	1029.25830078125	1295.385009765625	210.050537109375	998.4744873046875	1253.99609375	509.5845947265625	983.2482299804688	1519.154541015625	430.7692260742188	1011.341491699219	1409.514282226562	233.9542694091797	1090.664184570312	1353.07373046875	516.4421997070312	885.0059814453125	1492.535522460938	429.0861511230469	814.3140258789062	1473.864624023438	345.1619567871094	742.904296875	1345.146606445312	388.9605712890625	727.8262939453125	1129.471069335938	404.1338500976562	803.6470947265625	1117.16064453125	450.2142333984375	765.2470092773438	913.9371948242188	266.7643432617188	731.7130126953125	879.4339599609375	345.9495239257812	718.3512573242188	1017.967224121094	381.4781188964844	795.671142578125	735.1831665039062	222.6592407226562	738.1659545898438	813.7127075195312	313.7668151855469	748.6661987304688	836.3728637695312	245.5943908691406	1166.427001953125	1507.2978515625	388.5230407714844	1235.276489257812	1450.951904296875	422.5899658203125	1329.403198242188	1180.42919921875	476.35009765625	1236.737670898438	1155.871215820312	459.4251098632812	1386.805419921875	969.7886962890625	321.8383483886719	1412.74169921875	948.9705200195312	405.2772827148438	1365.74365234375	1112.512817382812	454.0798645019531	1395.892333984375	785.192626953125	284.9815368652344	1418.23779296875	882.6378173828125	291.0359191894531	1431.501220703125	871.1162719726562	369.9944152832031	1056.902954101562	1680.072265625	368.3463134765625	919.235595703125	1714.908447265625	203.2447662353516	1048.760375976562	1728.204956054688	199.4827880859375	920.9944458007812	1674.805786132812	378.8075866699219	837.954345703125	986.682373046875	356.6487426757812	1212.836669921875	1017.838134765625	351.2230529785156	1170.122192382812	1042.71875	263.0708312988281	912.0812377929688	1028.204223632812	242.1403656005859	898.5771484375	512.7301635742188	141.1932067871094	868.299072265625	650.3689575195312	199.8150177001953	970.865966796875	114.4312057495117	400.5210876464844	926.8539428710938	306.5473327636719	263.3387145996094	977.4404296875	49.88068771362305	195.3019409179688	1026.906005859375	59.89226531982422	239.0315093994141	924.1192626953125	74.7783203125	304.0978393554688	1042.182739257812	133.9411926269531	442.5296630859375	1200.928344726562	514.5170288085938	340.3490295410156	1231.83154296875	785.7860717773438	298.9218139648438	1186.1923828125	31.511474609375	468.6653442382812	1188.098876953125	390.0984802246094	336.4398193359375	1195.971069335938	38.78817749023438	244.690673828125	1142.359619140625	42.27875900268555	287.5567626953125	1245.616333007812	24.29584693908691	368.0457458496094	1108.582641601562	36.15201950073242	504.5292053222656	
195	1.94	1072.635620117188	1057.740966796875	480.5084533691406	951.0262451171875	1051.629638671875	464.4417114257812	1015.324768066406	1093.698608398438	471.8104858398438	1028.594604492188	1294.246215820312	202.138671875	1002.188598632812	1253.368286132812	501.6099243164062	985.3811645507812	1518.364990234375	422.5865783691406	1010.809265136719	1408.285034179688	225.9129791259766	1094.402954101562	1352.611572265625	506.985107421875	887.275390625	1491.521484375	422.496337890625	815.4688110351562	1472.460083007812	339.70458984375	745.3794555664062	1343.434692382812	384.6976928710938	732.0220947265625	1127.573852539062	400.068603515625	808.5690307617188	1115.331665039062	444.8342590332031	769.3900756835938	914.0639038085938	259.7008361816406	736.7913818359375	878.2176513671875	338.725341796875	723.2760620117188	1016.214660644531	376.5048522949219	800.354248046875	736.1517944335938	212.5101928710938	743.3270263671875	812.984619140625	305.4657592773438	753.0667114257812	836.738525390625	237.5655212402344	1168.044677734375	1506.835815429688	377.8015441894531	1237.6015625	1450.664672851562	410.8329162597656	1333.478637695312	1180.358154296875	462.5817565917969	1240.910766601562	1155.65234375	447.6544494628906	1389.023803710938	969.776611328125	307.3174743652344	1416.517211914062	949.2633056640625	390.3477172851562	1369.667602539062	1112.63232421875	439.7305908203125	1398.19873046875	785.035888671875	270.8808898925781	1420.21337890625	882.6441040039062	276.194091796875	1434.971923828125	871.423095703125	354.9086303710938	1057.8466796875	1679.308349609375	358.6096496582031	917.5285034179688	1713.573608398438	195.6438293457031	1047.059448242188	1727.171875	189.7671051025391	922.150390625	1673.730224609375	371.2298583984375	839.674072265625	986.3591918945312	350.430419921875	1214.386352539062	1016.992248535156	341.1791381835938	1170.788208007812	1041.82373046875	253.4150390625	912.5987548828125	1027.628784179688	235.4433135986328	897.39111328125	514.271728515625	130.3010101318359	867.2994995117188	651.3259887695312	190.9107818603516	975.9713134765625	103.3157424926758	368.083740234375	927.6987915039062	302.6484680175781	242.3599700927734	976.2911987304688	50.31968307495117	159.5254516601562	1027.048217773438	57.62648773193359	202.2604370117188	926.4188232421875	68.96233367919922	271.0225219726562	1048.312622070312	120.5132369995117	409.1409912109375	1201.376953125	513.9025268554688	337.150634765625	1232.189697265625	784.4127197265625	291.2351989746094	1186.045288085938	31.76477432250977	468.5847778320312	1188.20263671875	389.3551940917969	334.4006958007812	1196.155639648438	38.89923858642578	244.5707092285156	1142.490844726562	42.46006774902344	287.3561401367188	1245.6142578125	24.26768493652344	368.0523681640625	1108.323852539062	36.13646697998047	504.3233337402344	
